<svg width="92" height="21" viewBox="0 0 92 21" fill="none" xmlns="http://www.w3.org/2000/svg">
<path d="M7.272 9.32H7.176H7.272L8.544 4.064L9.576 0.199999H12.576L13.656 17H10.512L10.056 7.832H9.936L8.208 14.6H6.24L4.512 7.832H4.392L3.936 17H0.792L1.872 0.199999H4.872L5.904 4.064L7.176 9.32H7.272ZM21.0135 7.256H19.2135C18.9735 7.544 18.7735 7.944 18.6135 8.456C18.4695 8.968 18.3975 9.464 18.3975 9.944H21.8295C21.8615 9.464 21.7975 8.968 21.6375 8.456C21.4775 7.928 21.2695 7.528 21.0135 7.256ZM24.2775 14.48V17H18.1815C17.0615 16.248 16.2695 15.32 15.8055 14.216C15.3575 13.096 15.1335 11.968 15.1335 10.832C15.1335 8.208 16.1255 6.176 18.1095 4.736H21.9975C23.0695 5.52 23.7975 6.352 24.1815 7.232C24.5655 8.112 24.7575 9 24.7575 9.896C24.7575 10.792 24.6855 11.56 24.5415 12.2H18.5655C18.6135 12.568 18.7495 12.992 18.9735 13.472C19.2135 13.936 19.4695 14.272 19.7415 14.48H24.2775ZM32.1519 11.456H29.5839C29.2479 11.872 29.0799 12.392 29.0799 13.016C29.0799 13.64 29.2559 14.128 29.6079 14.48H32.1519V11.456ZM26.9919 4.736H32.9439C33.9039 5.312 34.5359 5.976 34.8399 6.728C35.1439 7.464 35.2959 8.472 35.2959 9.752V13.352C35.2959 14.68 35.3279 15.896 35.3919 17H32.6559L32.2239 16.136C31.5999 16.712 30.7199 17 29.5839 17H28.0719C26.7119 16.104 26.0319 14.816 26.0319 13.136C26.0319 11.44 26.7279 10.104 28.1199 9.128H30.3759C30.9999 9.128 31.5839 9.32 32.1279 9.704V8.504C32.1279 7.88 31.8559 7.464 31.3119 7.256H26.9919V4.736ZM42.6881 4.736H45.2321C45.9361 5.632 46.4161 6.528 46.6721 7.424C46.9281 8.32 47.0561 9.44 47.0561 10.784V17H43.8641V10.544C43.8641 9.024 43.6561 7.928 43.2401 7.256H40.5521V17H37.3601V4.736H39.8561L40.2881 5.6C40.6401 5.28 40.9681 5.056 41.2721 4.928C41.5921 4.8 42.0641 4.736 42.6881 4.736Z" fill="black"/>
<path d="M50.688 0.199999H56.448V3.08H51.84L51.768 3.224L55.608 10.232C56.392 11.64 56.784 12.712 56.784 13.448C56.784 15.064 56.248 16.248 55.176 17H48.816V14.216H53.784L53.856 14.072L49.536 6.32C48.912 5.2 48.6 4.288 48.6 3.584C48.6 1.92 49.296 0.791999 50.688 0.199999ZM63.9287 4.736H66.2087C66.9127 5.632 67.3927 6.528 67.6487 7.424C67.9047 8.32 68.0327 9.44 68.0327 10.784V17H64.8407V10.544C64.8407 9.024 64.6327 7.928 64.2167 7.256H61.5287V17H58.3367V0.199999H61.5287V5.6C61.8807 5.28 62.2087 5.056 62.5127 4.928C62.8327 4.8 63.3047 4.736 63.9287 4.736ZM77.3046 17H72.0726C70.4726 15.512 69.6726 13.48 69.6726 10.904C69.6726 9.608 69.8486 8.48 70.2006 7.52C70.5686 6.56 71.1446 5.632 71.9286 4.736H77.5446C78.3766 5.696 78.9446 6.632 79.2486 7.544C79.5526 8.44 79.7046 9.56 79.7046 10.904C79.7046 13.48 78.9046 15.512 77.3046 17ZM73.7766 14.48H75.6006C76.1766 13.36 76.4646 12.088 76.4646 10.664C76.4646 9.24 76.1686 8.104 75.5766 7.256H73.7766C73.2006 8.072 72.9126 9.232 72.9126 10.736C72.9126 12.224 73.2006 13.472 73.7766 14.48ZM81.4226 4.736H83.9906L84.3506 5.6C84.7026 5.28 85.0306 5.056 85.3346 4.928C85.6546 4.8 86.1266 4.736 86.7506 4.736H88.9106C89.5826 5.392 90.1106 6.24 90.4946 7.28C90.8786 8.32 91.0706 9.464 91.0706 10.712C91.0706 13.384 90.2706 15.48 88.6706 17H86.6306C85.7826 17 85.1106 16.776 84.6146 16.328V20.6H81.4226V4.736ZM84.6146 14.48H86.9186C87.5106 13.472 87.8066 12.248 87.8066 10.808C87.8066 9.368 87.5026 8.184 86.8946 7.256H84.6146V14.48Z" fill="#0500FF"/>
</svg>
